<svg width="28" height="28" viewBox="0 0 28 28" fill="none" xmlns="http://www.w3.org/2000/svg">
<path d="M8.16667 12.8332H10.5V15.1665H8.16667V12.8332ZM24.5 5.83317V22.1665C24.5 23.4615 23.4617 24.4998 22.1667 24.4998H5.83333C4.53833 24.4998 3.5 23.4498 3.5 22.1665V5.83317C3.5 4.54984 4.55 3.49984 5.83333 3.49984H7V1.1665H9.33333V3.49984H18.6667V1.1665H21V3.49984H22.1667C23.4617 3.49984 24.5 4.54984 24.5 5.83317ZM5.83333 8.1665H22.1667V5.83317H5.83333V8.1665ZM22.1667 22.1665V10.4998H5.83333V22.1665H22.1667ZM17.5 15.1665V12.8332H19.8333V15.1665H17.5ZM12.8333 15.1665V12.8332H15.1667V15.1665H12.8333ZM8.16667 17.4998H10.5V19.8332H8.16667V17.4998ZM17.5 19.8332V17.4998H19.8333V19.8332H17.5ZM12.8333 19.8332V17.4998H15.1667V19.8332H12.8333Z" fill="black"/>
</svg>
