<svg width="22" height="22" viewBox="0 0 22 22" fill="none" xmlns="http://www.w3.org/2000/svg">
<path d="M6.87516 1.83349C5.23433 2.88766 4.12516 4.74849 4.12516 6.87516C4.12516 9.00182 5.23433 10.8627 6.90266 11.9168C4.0885 11.9168 1.8335 9.66182 1.8335 6.87516C1.8335 5.53802 2.36467 4.25566 3.31017 3.31016C4.25566 2.36466 5.53803 1.83349 6.87516 1.83349ZM17.481 3.20849L18.7918 4.51932L4.51933 18.7918L3.2085 17.481L17.481 3.20849ZM11.816 5.43599L10.4593 4.58349L9.13933 5.50016L9.52433 3.94182L8.25016 2.97016L9.85433 2.86016L10.386 1.34766L11.0002 2.84182L12.586 2.86932L11.3485 3.90516L11.816 5.43599ZM8.791 8.74516L7.72766 8.07599L6.701 8.79099L7.01266 7.58099L6.0135 6.82016L7.26016 6.73766L7.67266 5.55516L8.14016 6.71932L9.38683 6.74682L8.42433 7.54432L8.791 8.74516ZM17.4168 12.3752C17.4168 13.7123 16.8857 14.9947 15.9402 15.9402C14.9947 16.8856 13.7123 17.4168 12.3752 17.4168C11.2568 17.4168 10.221 17.0502 9.38683 16.436L16.436 9.38682C17.0502 10.221 17.4168 11.2568 17.4168 12.3752ZM13.3835 18.4068L15.9227 17.3527L15.7027 20.4235L13.3835 18.4068ZM17.3527 15.9318L18.4068 13.3927L20.4235 15.721L17.3527 15.9318ZM18.4068 11.3852L17.3618 8.83682L20.4235 9.05682L18.4068 11.3852ZM8.82766 17.3527L11.3668 18.4068L9.04766 20.4143L8.82766 17.3527Z" fill="white"/>
</svg>
